Coordinates
version=1
nRows=27
nColumns=38
inDegrees=no

Units are S.I. units (second, meters, Newtons, ...)
If the header above contains a line with 'inDegrees', this indicates whether rotational values are in degrees (yes) or radians (no).

endheader
time	pelvis_tilt	pelvis_list	pelvis_rotation	pelvis_tx	pelvis_ty	pelvis_tz	hip_flexion_r	hip_adduction_r	hip_rotation_r	knee_angle_r	ankle_angle_r	subtalar_angle_r	mtp_angle_r	hip_flexion_l	hip_adduction_l	hip_rotation_l	knee_angle_l	ankle_angle_l	subtalar_angle_l	mtp_angle_l	lumbar_extension	lumbar_bending	lumbar_rotation	arm_flex_r	arm_add_r	arm_rot_r	elbow_flex_r	pro_sup_r	wrist_flex_r	wrist_dev_r	arm_flex_l	arm_add_l	arm_rot_l	elbow_flex_l	pro_sup_l	wrist_flex_l	wrist_dev_l
1.49	0.547782	1.48556	-2.15101	0.720195	0.479383	0.935391	-0.248519	0.0318096	-0.110223	0.00961651	0.128048	0	0	0.35205	-0.053715	-0.330257	0.408931	0.0713547	0	0	-0.226067	-0.0852626	-0.0493116	-0.0223184	-0.223723	0.327082	0.496704	0.859658	0	0	-0.0434119	-0.396523	0.393767	0.716251	1.13025	0	0
1.5	0.464274	1.48496	-2.06935	0.720946	0.470498	0.934644	-0.259004	0.030231	-0.109278	0.0254065	0.148219	0	0	0.331896	-0.0439777	-0.337373	0.318672	0.0610129	0	0	-0.232207	-0.0790561	-0.0490581	-0.0186141	-0.226293	0.327576	0.495201	0.85747	0	0	-0.0410178	-0.393114	0.394038	0.71058	1.1278	0	0
1.51	0.470625	1.48758	-2.07748	0.721792	0.461513	0.932481	-0.266088	0.0286073	-0.112657	0.0282093	0.161386	0	0	0.317659	-0.0269618	-0.336248	0.22763	0.0492452	0	0	-0.230306	-0.0785257	-0.0496713	-0.0171412	-0.228674	0.327609	0.495675	0.853686	0	0	-0.0407373	-0.391224	0.393816	0.706716	1.12656	0	0
1.52	0.485926	1.49189	-2.09374	0.722812	0.452366	0.929877	-0.271882	0.0270756	-0.116466	0.0310656	0.176031	0	0	0.302126	-0.00799267	-0.31927	0.132355	0.0317908	0	0	-0.226108	-0.0776003	-0.0511586	-0.0160251	-0.231416	0.328259	0.49617	0.848869	0	0	-0.0413148	-0.389102	0.392946	0.70258	1.12691	0	0
1.53	0.492201	1.49809	-2.09999	0.723885	0.443068	0.926899	-0.277042	0.0277074	-0.120282	0.0332788	0.190329	0	0	0.287955	0.00805515	-0.292173	0.042147	0.0131914	0	0	-0.220092	-0.0750383	-0.0532044	-0.0152387	-0.234198	0.328879	0.496498	0.842317	0	0	-0.0424454	-0.386944	0.391576	0.69806	1.12928	0	0
1.54	0.802082	1.51044	-2.409	0.724384	0.43442	0.920967	-0.264938	0.0211952	-0.122444	0.0330501	0.212115	0	0	0.310803	0.0259228	-0.274686	0	0.00419378	0	0	-0.195276	-0.0867562	-0.0558784	-0.0190083	-0.236001	0.335013	0.502168	0.846157	0	0	-0.0473975	-0.396646	0.412575	0.711152	1.02613	0	0
1.55	0.445389	1.50568	-2.04493	0.725901	0.425237	0.921143	-0.291864	0.0357649	-0.124523	0.0407911	0.214389	0	0	0.305025	0.0183973	-0.265573	0	0.0102302	0	0	-0.216941	-0.0700234	-0.063385	-0.0115109	-0.239615	0.342934	0.497466	0.796851	0	0	-0.042696	-0.38034	0.369229	0.682555	1.19313	0	0
1.56	0.69222	1.51488	-2.29373	0.726047	0.41666	0.91608	-0.2898	0.0277621	-0.120512	0.0336589	0.228215	0	0	0.33409	0.029711	-0.264278	0	0.0161814	0	0	-0.200412	-0.0812152	-0.0647624	-0.0108618	-0.238448	0.341116	0.496731	0.792562	0	0	-0.0463622	-0.383685	0.365473	0.682648	1.2028	0	0
1.57	0.628783	1.51629	-2.22835	0.726757	0.40731	0.913753	-0.299331	0.0303161	-0.125644	0.042014	0.240839	0	0	0.341014	0.0321182	-0.255498	0	0.0221247	0	0	-0.202933	-0.0790881	-0.0682459	-0.00787204	-0.239259	0.340211	0.494461	0.789912	0	0	-0.0463523	-0.383014	0.362882	0.67667	1.21271	0	0
1.58	0.562525	1.51656	-2.16166	0.727322	0.397539	0.911579	-0.310417	0.0321014	-0.126496	0.0484842	0.249691	0	0	0.343824	0.0348172	-0.24751	0	0.0265915	0	0	-0.20547	-0.0781364	-0.0687506	-0.00639714	-0.23811	0.328299	0.490234	0.813156	0	0	-0.0451065	-0.391359	0.397343	0.68135	1.11668	0	0
1.59	0.509263	1.51649	-2.10993	0.727758	0.387455	0.909537	-0.317377	0.0321681	-0.132776	0.0629868	0.262397	0	0	0.343742	0.0379289	-0.241218	0	0.027958	0	0	-0.207434	-0.0778191	-0.0684038	-0.00425247	-0.239244	0.32955	0.487683	0.80827	0	0	-0.0452863	-0.390204	0.394026	0.673728	1.13542	0	0
1.6	0.464132	1.51549	-2.06818	0.728051	0.377	0.90771	-0.32428	0.0305541	-0.138772	0.0793984	0.274766	0	0	0.339954	0.0414163	-0.236959	0	0.0261969	0	0	-0.209453	-0.0785184	-0.0660422	-0.00240489	-0.240099	0.329749	0.484755	0.803728	0	0	-0.0458038	-0.389148	0.390892	0.666702	1.15242	0	0
1.61	0.431974	1.5139	-2.0409	0.728218	0.366136	0.906066	-0.330782	0.0273128	-0.144102	0.097451	0.286392	0	0	0.332822	0.0452547	-0.230742	0	0.0220947	0	0	-0.211042	-0.0802939	-0.0618104	-0.00107603	-0.240435	0.328636	0.481211	0.798764	0	0	-0.0466539	-0.3883	0.388629	0.660306	1.16808	0	0
1.62	0.425382	1.51327	-2.04066	0.728369	0.354825	0.904433	-0.334184	0.0222402	-0.150354	0.118516	0.297394	0	0	0.325228	0.0492159	-0.226161	0	0.0231308	0	0	-0.210106	-0.0828844	-0.0559823	-0.000546092	-0.240485	0.32665	0.476764	0.793538	0	0	-0.0483625	-0.38744	0.387151	0.654364	1.18237	0	0
1.63	0.427206	1.51344	-2.05093	0.728462	0.343017	0.902972	-0.337034	0.0117413	-0.161616	0.14076	0.310488	0	0	0.313851	0.0526178	-0.218018	0	0.0284776	0	0	-0.207015	-0.0857924	-0.0476527	-0.00127944	-0.240202	0.323908	0.471447	0.788188	0	0	-0.0507153	-0.386419	0.386649	0.648478	1.19535	0	0
1.64	0.443549	1.51087	-2.07269	0.728592	0.331728	0.901687	-0.337327	0.00313515	-0.169544	0.171108	0.32193	0	0	0.331113	0.0510978	-0.2416	0.0582073	0.0588603	0	0	-0.207248	-0.0911647	-0.0404076	-0.00225915	-0.238943	0.321494	0.466188	0.77866	0	0	-0.0514725	-0.38434	0.377821	0.640268	1.2379	0	0
1.65	0.462952	1.50568	-2.09843	0.728778	0.319865	0.900812	-0.341396	-0.00725698	-0.171155	0.198418	0.326887	0	0	0.331894	0.0547228	-0.243353	0.090146	0.0679672	0	0	-0.208443	-0.0981241	-0.0321807	-0.00492777	-0.238124	0.319384	0.462623	0.777227	0	0	-0.0537503	-0.384633	0.37846	0.637117	1.24244	0	0
1.66	0.49104	1.50154	-2.13232	0.729129	0.307762	0.899935	-0.341515	-0.0186279	-0.174607	0.231215	0.330964	0	0	0.334621	0.0574025	-0.253279	0.120305	0.0663937	0	0	-0.207528	-0.104959	-0.0242792	-0.00846279	-0.236954	0.31526	0.458933	0.775945	0	0	-0.0569938	-0.384877	0.379161	0.634454	1.24702	0	0
1.67	0.519926	1.49836	-2.16558	0.729729	0.295487	0.899117	-0.338394	-0.0300949	-0.17837	0.268389	0.332068	0	0	0.336471	0.05915	-0.265509	0.144468	0.047412	0	0	-0.205213	-0.111028	-0.0177789	-0.0126544	-0.235574	0.309391	0.455687	0.7752	0	0	-0.061248	-0.385025	0.378912	0.632692	1.25134	0	0
1.68	0.543399	1.49517	-2.19175	0.730567	0.283078	0.898549	-0.332832	-0.0416861	-0.182344	0.310315	0.329023	0	0	0.33738	0.0594499	-0.281972	0.168899	0.0237308	0	0	-0.202862	-0.116518	-0.0130614	-0.0172926	-0.234025	0.302574	0.453264	0.775433	0	0	-0.0662993	-0.385185	0.377384	0.63208	1.25513	0	0
1.69	0.559833	1.49095	-2.20937	0.731623	0.270648	0.898402	-0.325003	-0.0542421	-0.186741	0.358421	0.321076	0	0	0.338615	0.0584492	-0.301256	0.200817	0.0114247	0	0	-0.20185	-0.121974	-0.0100705	-0.0218496	-0.232364	0.295513	0.45161	0.77639	0	0	-0.0715489	-0.385469	0.374977	0.632315	1.25807	0	0
1.7	0.368646	1.47664	-2.01296	0.733554	0.257837	0.90147	-0.333998	-0.0572833	-0.200268	0.409295	0.294504	0	0	0.319871	0.048388	-0.312793	0.237717	0.0165842	0	0	-0.22181	-0.11395	-0.0124796	-0.0235417	-0.232448	0.28879	0.449281	0.777766	0	0	-0.0728252	-0.381697	0.372509	0.627144	1.26015	0	0
1.71	0.382005	1.46861	-2.02297	0.735118	0.245446	0.902574	-0.324674	-0.0721571	-0.205993	0.465593	0.267755	0	0	0.317309	0.0497075	-0.321897	0.277003	0.0308149	0	0	-0.225992	-0.1197	-0.0152032	-0.0268257	-0.230187	0.283663	0.448466	0.779237	0	0	-0.0778043	-0.38234	0.368653	0.627688	1.26127	0	0
1.72	0.602203	1.46949	-2.24071	0.736396	0.233308	0.901039	-0.285752	-0.10147	-0.201431	0.539965	0.244785	0	0	0.334702	0.065737	-0.330941	0.313165	0.0453321	0	0	-0.208296	-0.141665	-0.0191494	-0.0329655	-0.225123	0.279166	0.449065	0.779962	0	0	-0.0882686	-0.388684	0.364935	0.635697	1.26093	0	0
1.73	0.485119	1.45604	-2.11049	0.739456	0.220801	0.905113	-0.285011	-0.111472	-0.191565	0.597167	0.184531	0	0	0.30941	0.0667614	-0.326729	0.333099	0.0562512	0	0	-0.227123	-0.135847	-0.0304559	-0.0337374	-0.223274	0.267631	0.445638	0.792789	0	0	-0.0889807	-0.388487	0.375496	0.635212	1.22242	0	0
1.74	0.557291	1.45056	-2.17181	0.741994	0.208617	0.906385	-0.251818	-0.134011	-0.205058	0.675969	0.117279	0	0	0.29808	0.0832812	-0.318592	0.337255	0.0594864	0	0	-0.224818	-0.145253	-0.0415788	-0.0375578	-0.223122	0.282366	0.447608	0.767868	0	0	-0.0949544	-0.395352	0.390784	0.644089	1.17599	0	0
1.75	0.626842	1.44854	-2.23021	0.744757	0.196676	0.907346	-0.216207	-0.154069	-0.188687	0.74501	0.0464686	0	0	0.287799	0.0989339	-0.309005	0.335641	0.0618014	0	0	-0.219191	-0.151457	-0.0522629	-0.0412933	-0.221663	0.282983	0.447272	0.76545	0	0	-0.100209	-0.39858	0.395445	0.649132	1.16354	0	0
